# Blender 3.6.0
# www.blender.org
o octahedron
v 1.000000 0.000000 0.000000
v -1.000000 0.000000 0.000000
v 0.000000 -0.000000 -1.000000
v 0.000000 0.000000 1.000000
v 0.000000 1.000000 -0.000000
v 0.000000 -1.000000 0.000000
vn 0.5774 0.5774 -0.5774
vn -0.5774 0.5774 -0.5774
vn -0.5774 0.5774 0.5774
vn 0.5774 0.5774 0.5774
vn 0.5774 -0.5774 -0.5774
vn -0.5774 -0.5774 -0.5774
vn -0.5774 -0.5774 0.5774
vn 0.5774 -0.5774 0.5774
vt 0.000282 0.000282
vt 0.249718 0.249718
vt 0.000282 0.499153
vt 0.250282 0.000282
vt 0.499718 0.249718
vt 0.250282 0.499153
vt 0.500282 0.000282
vt 0.749718 0.249718
vt 0.500282 0.499153
vt 0.000282 0.499718
vt 0.249718 0.749153
vt 0.000282 0.998589
vt 0.250282 0.499718
vt 0.499718 0.749153
vt 0.250282 0.998589
vt 0.500282 0.499718
vt 0.749718 0.749153
vt 0.500282 0.998589
vt 0.750282 0.000282
vt 0.999718 0.249718
vt 0.750282 0.499153
vt 0.750282 0.499718
vt 0.999718 0.749153
vt 0.750282 0.998589
s 0
f 5/1/1 1/2/1 3/3/1
f 5/4/2 3/5/2 2/6/2
f 5/7/3 2/8/3 4/9/3
f 5/10/4 4/11/4 1/12/4
f 6/13/5 3/14/5 1/15/5
f 6/16/6 2/17/6 3/18/6
f 6/19/7 4/20/7 2/21/7
f 6/22/8 1/23/8 4/24/8
